<svg width="273" height="72" fill="none" xmlns="http://www.w3.org/2000/svg"><path d="M102.16 45.72h-9.44L91.32 50H82l10.36-28.32h10.24L112.92 50h-9.36l-1.4-4.28zM100 39.04l-2.56-7.88-2.56 7.88H100zm38.818-11.6V50h-8.88v-3.44c-.694 1.067-1.627 1.933-2.8 2.6-1.147.667-2.52 1-4.12 1-2.587 0-4.614-.867-6.08-2.6-1.44-1.733-2.16-4.08-2.16-7.04V27.44h8.84V39.4c0 1.067.28 1.92.84 2.56.586.613 1.359.92 2.32.92.986 0 1.759-.307 2.319-.92.56-.64.841-1.493.841-2.56V27.44h8.88zm2.81 11.28c0-2.373.4-4.427 1.2-6.16.827-1.76 1.947-3.093 3.36-4 1.413-.933 3-1.4 4.76-1.4 1.467 0 2.72.307 3.76.92 1.067.587 1.88 1.4 2.44 2.44V20.4h8.88V50h-8.88v-3.08c-.56 1.04-1.373 1.867-2.44 2.48-1.04.587-2.293.88-3.76.88-1.76 0-3.347-.453-4.76-1.36-1.413-.933-2.533-2.267-3.36-4-.8-1.76-1.2-3.827-1.2-6.2zm15.56 0c0-1.2-.307-2.133-.92-2.8-.613-.667-1.4-1-2.36-1s-1.747.333-2.36 1c-.613.667-.92 1.6-.92 2.8 0 1.2.307 2.133.92 2.8.613.667 1.4 1 2.36 1s1.747-.333 2.36-1c.613-.667.92-1.6.92-2.8zm17.308-13.08c-1.547 0-2.787-.413-3.72-1.24-.934-.827-1.4-1.867-1.4-3.12 0-1.28.466-2.333 1.4-3.16.933-.853 2.173-1.28 3.72-1.28 1.52 0 2.746.427 3.68 1.28.933.827 1.4 1.88 1.4 3.16 0 1.253-.467 2.293-1.4 3.12-.934.827-2.16 1.24-3.68 1.24zm4.4 1.8V50h-8.88V27.44h8.88zm34.13-.16c2.88 0 5.107.867 6.68 2.6 1.6 1.733 2.4 4.08 2.4 7.04V50h-8.84V38.04c0-.96-.293-1.707-.88-2.24-.56-.56-1.32-.84-2.28-.84-.986 0-1.76.28-2.32.84-.56.533-.84 1.28-.84 2.24V50h-8.84V38.04c0-.96-.293-1.707-.88-2.24-.56-.56-1.32-.84-2.28-.84-.986 0-1.76.28-2.32.84-.56.533-.84 1.28-.84 2.24V50h-8.88V27.44h8.88v3.04c.64-.96 1.507-1.733 2.6-2.32 1.12-.587 2.427-.88 3.92-.88 1.627 0 3.067.36 4.32 1.08 1.254.693 2.254 1.68 3 2.96a9.937 9.937 0 0 1 3.16-2.88c1.28-.773 2.694-1.16 4.24-1.16zm34.767 11.24c0 .613-.04 1.2-.12 1.76h-14.28c.133 1.947.947 2.92 2.44 2.92.96 0 1.653-.44 2.08-1.32h9.4c-.32 1.6-1 3.04-2.04 4.32-1.013 1.253-2.307 2.253-3.88 3-1.547.72-3.253 1.08-5.12 1.08-2.24 0-4.24-.467-6-1.4-1.733-.933-3.093-2.267-4.08-4-.96-1.76-1.44-3.813-1.44-6.16s.48-4.387 1.44-6.12c.987-1.76 2.347-3.107 4.08-4.04 1.76-.933 3.76-1.4 6-1.4s4.227.467 5.96 1.4c1.76.907 3.12 2.213 4.08 3.92.987 1.707 1.48 3.72 1.48 6.04zm-9-2.12c0-.747-.24-1.307-.72-1.68-.48-.4-1.08-.6-1.8-.6-1.573 0-2.493.76-2.76 2.28h5.28zm33.649 2.12c0 .613-.04 1.2-.12 1.76h-14.28c.133 1.947.946 2.92 2.44 2.92.96 0 1.653-.44 2.08-1.32h9.4c-.32 1.6-1 3.04-2.04 4.32-1.014 1.253-2.307 2.253-3.88 3-1.547.72-3.254 1.08-5.12 1.08-2.24 0-4.24-.467-6-1.4-1.734-.933-3.094-2.267-4.08-4-.96-1.76-1.44-3.813-1.44-6.16s.48-4.387 1.44-6.12c.986-1.76 2.346-3.107 4.08-4.04 1.76-.933 3.76-1.4 6-1.4s4.226.467 5.96 1.4c1.76.907 3.12 2.213 4.08 3.92.986 1.707 1.48 3.72 1.48 6.04zm-9-2.12c0-.747-.24-1.307-.72-1.68-.48-.4-1.08-.6-1.8-.6-1.574 0-2.494.76-2.76 2.28h5.28z" fill="#111827"/><path fill-rule="evenodd" clip-rule="evenodd" d="M72 36c0 19.882-16.118 36-36 36S0 55.882 0 36 16.118 0 36 0s36 16.118 36 36zm-48-8a4 4 0 0 1 8 0v16a4 4 0 0 1-8 0V28zm-12 2a4 4 0 0 0-4 4v3a4 4 0 0 0 8 0v-3a4 4 0 0 0-4-4zm28 2a4 4 0 0 1 8 0v8a4 4 0 0 1-8 0v-8zm20-1a4 4 0 0 0-4 4v1a4 4 0 0 0 8 0v-1a4 4 0 0 0-4-4z" fill="#111827"/></svg>
